 <svg  version="1.0" xmlns="http://www.w3.org/2000/svg"  width="300.000000pt" height="300.000000pt" viewBox="0 0 300.000000 300.000000"  preserveAspectRatio="xMidYMid meet">  <g transform="translate(0.000000,300.000000) scale(0.100000,-0.100000)" fill="#009798" stroke="none"> <path d="M1368 2718 c-132 -14 -264 -53 -393 -117 -306 -152 -512 -411 -598 -750 -31 -122 -31 -399 0 -511 89 -322 279 -576 547 -731 513 -296 1153 -159 1506 322 413 564 220 1358 -405 1672 -189 94 -437 138 -657 115z m377 -93 c207 -48 366 -137 520 -290 157 -156 240 -306 287 -518 25 -114 27 -317 5 -422 -62 -282 -225 -525 -460 -683 -181 -122 -333 -171 -562 -179 -172 -6 -279 11 -421 66 -186 72 -382 226 -493 386 -291 420 -254 971 88 1329 268 280 662 398 1036 311z"/> <path d="M1435 2532 c-116 -93 -221 -254 -261 -397 -9 -33 -18 -108 -21 -167 l-6 -106 45 16 45 16 6 70 c7 92 31 184 68 261 38 76 120 187 161 217 l31 22 61 -65 c75 -80 128 -169 163 -274 23 -69 27 -97 27 -205 0 -142 -11 -194 -77 -354 -35 -87 -41 -111 -41 -176 0 -58 4 -84 21 -115 48 -91 144 -148 248 -149 135 -1 225 101 201 229 -10 49 -81 121 -130 130 -85 16 -167 -33 -181 -108 -13 -67 50 -136 110 -121 50 12 54 74 5 74 -10 0 -23 7 -30 15 -10 13 -10 19 5 35 26 29 76 26 108 -5 31 -32 38 -64 21 -103 -50 -120 -249 -70 -286 70 -13 52 -16 39 66 273 45 129 60 225 53 350 -10 175 -65 318 -176 458 -49 62 -154 157 -172 157 -3 0 -32 -21 -64 -48z m151 -69 c109 -109 181 -240 210 -380 16 -74 16 -281 1 -342 -18 -68 -39 -134 -67 -201 -17 -41 -35 -102 -39 -134 -7 -54 -6 -64 20 -115 33 -65 34 -68 15 -52 -27 23 -56 100 -56 151 0 27 9 73 21 102 43 111 89 253 89 278 0 15 3 30 7 34 4 3 6 57 5 119 -1 155 -43 285 -131 416 -68 100 -141 159 -182 146 -29 -9 -109 -96 -154 -165 -40 -62 -91 -176 -99 -223 -3 -12 -5 -22 -6 -22 -1 0 -3 -11 -5 -25 -3 -14 -9 -47 -14 -75 l-9 -50 -1 58 c-1 67 28 190 60 257 60 124 203 290 250 290 10 0 48 -30 85 -67z m339 -1023 c-3 -5 -12 -10 -19 -10 -7 0 -23 -11 -36 -25 -26 -27 -34 -27 -24 0 4 9 21 23 38 31 38 16 49 17 41 4z m64 -1 c61 -21 101 -132 70 -192 -17 -33 -41 -57 -50 -52 -4 3 3 17 16 31 63 68 37 156 -60 207 -35 19 -22 22 24 6z"/> <path d="M1706 2466 c32 -38 57 -57 87 -66 108 -32 242 -117 334 -211 105 -108 157 -192 205 -330 32 -91 33 -99 33 -259 0 -99 -5 -177 -11 -196 -10 -25 -8 -41 9 -93 24 -72 26 -70 59 50 20 72 23 107 22 239 -1 137 -4 165 -28 243 -65 218 -193 393 -378 518 -64 44 -183 101 -245 118 -21 6 -59 18 -86 26 l-47 14 46 -53z"/> <path d="M1210 2481 c-169 -55 -295 -135 -410 -258 -155 -165 -235 -351 -247 -573 -6 -118 4 -205 37 -330 l23 -84 21 64 c19 58 20 71 9 120 -43 198 -5 428 99 604 89 150 263 298 436 369 57 23 89 43 116 75 47 52 37 53 -84 13z"/> <path d="M1440 2269 c-85 -34 -127 -146 -83 -220 17 -29 67 -59 98 -59 31 0 75 30 81 57 13 49 -30 80 -66 48 -41 -37 -58 35 -17 73 34 32 73 28 113 -12 71 -71 29 -176 -91 -228 -22 -10 -85 -34 -140 -54 -239 -87 -403 -198 -524 -354 -77 -97 -148 -262 -166 -382 l-7 -45 85 -31 c207 -75 416 -81 593 -18 60 21 174 77 173 85 0 3 -15 18 -34 34 l-33 27 -59 -30 c-33 -16 -98 -39 -144 -51 -71 -18 -101 -21 -194 -16 -126 6 -275 46 -275 73 0 29 51 169 80 219 75 128 190 238 330 314 41 22 142 65 223 95 170 63 203 81 251 138 64 75 69 198 10 275 -47 62 -136 89 -204 62z m134 -48 c26 -18 66 -67 66 -83 0 -4 -20 12 -44 36 -24 24 -57 47 -74 51 -56 12 -121 -40 -128 -102 -4 -35 40 -75 72 -67 13 4 24 2 24 -4 0 -28 -69 -21 -97 10 -22 24 -22 88 0 121 35 53 128 73 181 38z m61 -218 c-9 -21 -23 -45 -32 -55 -30 -33 -108 -75 -198 -108 -245 -88 -308 -121 -427 -223 -40 -34 -74 -65 -76 -69 -2 -4 -19 -27 -38 -53 -76 -98 -144 -247 -144 -311 0 -34 29 -70 67 -85 128 -48 336 -58 466 -21 43 12 96 31 118 42 21 11 39 16 39 12 0 -9 -92 -49 -160 -70 -73 -22 -191 -30 -295 -19 -89 10 -255 58 -265 77 -13 25 14 130 59 225 56 120 107 184 241 309 26 24 143 96 156 96 7 0 14 4 16 8 2 5 57 30 123 56 266 105 289 118 327 186 29 50 43 52 23 3z"/> <path d="M1885 1728 c-7 -40 -5 -44 26 -68 96 -73 151 -125 198 -187 60 -80 114 -186 132 -262 12 -50 12 -54 -6 -68 -47 -34 -157 -58 -270 -58 -127 0 -180 14 -274 75 -163 105 -373 365 -407 503 -7 32 -3 31 -54 11 -22 -9 -40 -22 -40 -30 0 -26 51 -128 105 -210 148 -222 374 -400 553 -435 121 -23 319 5 455 66 66 29 67 33 37 145 -49 177 -165 359 -296 461 -56 44 -139 99 -148 99 -2 0 -7 -19 -11 -42z m79 -43 c8 -8 17 -15 20 -15 19 0 153 -132 193 -190 99 -145 173 -380 120 -380 -6 0 -24 -6 -38 -14 -15 -7 -51 -19 -80 -26 -30 -7 -68 -16 -85 -20 -57 -14 -227 -11 -276 4 -149 46 -323 180 -452 349 -54 71 -126 199 -126 224 0 29 18 10 44 -47 45 -98 145 -229 249 -328 159 -152 303 -211 481 -197 162 12 266 65 266 134 0 70 -68 215 -153 327 -40 53 -67 79 -172 168 -16 14 -25 26 -18 26 6 0 18 -7 27 -15z"/> <path d="M1022 1517 c-143 -52 -192 -231 -85 -311 36 -26 102 -32 141 -12 61 32 81 114 38 155 -44 41 -109 3 -69 -41 15 -17 15 -20 1 -35 -22 -21 -65 -10 -80 22 -26 57 46 145 117 145 59 0 115 -67 115 -137 -1 -41 -32 -103 -71 -141 l-34 -34 40 8 c105 18 145 65 145 169 0 99 -64 191 -150 215 -44 12 -66 12 -108 -3z m126 -47 c23 -10 42 -24 42 -30 0 -6 -15 -1 -32 12 -66 46 -162 21 -209 -56 -13 -21 -19 -25 -19 -13 0 24 49 73 91 91 46 20 76 19 127 -4z"/> <path d="M830 930 c120 -111 254 -192 388 -234 318 -99 663 -23 915 203 40 35 73 68 75 72 2 4 -28 -1 -65 -10 -48 -12 -85 -31 -123 -60 -66 -51 -211 -122 -300 -147 -91 -26 -346 -26 -440 -1 -90 25 -233 96 -310 154 -41 32 -80 52 -105 56 -22 4 -51 10 -65 13 -20 4 -15 -4 30 -46z"/> <path d="M1193 245 c-11 -19 -4 -85 8 -85 5 0 9 12 10 28 0 15 2 37 5 50 4 25 -11 30 -23 7z"/> <path d="M1230 219 c0 -6 7 -9 15 -6 8 4 17 2 20 -3 4 -6 -3 -10 -14 -10 -14 0 -21 -6 -21 -20 0 -15 7 -20 25 -20 22 0 25 4 25 35 0 31 -3 35 -25 35 -14 0 -25 -5 -25 -11z"/> <path d="M1290 226 c0 -14 24 -66 30 -66 4 0 13 14 19 31 13 39 13 39 2 39 -5 0 -12 -10 -14 -22 l-4 -23 -8 23 c-6 18 -25 32 -25 18z"/> <path d="M1360 195 c0 -19 5 -35 10 -35 6 0 10 16 10 35 0 19 -4 35 -10 35 -5 0 -10 -16 -10 -35z"/> <path d="M1397 223 c-4 -3 -7 -17 -7 -30 0 -28 26 -41 51 -25 11 7 20 8 24 2 10 -16 42 -12 49 6 15 40 -22 72 -51 43 -8 -8 -13 -8 -17 0 -8 12 -39 15 -49 4z m42 -12 c16 -10 6 -31 -15 -31 -8 0 -14 9 -14 20 0 22 7 25 29 11z m57 -27 c-5 -13 -10 -14 -18 -6 -6 6 -8 18 -4 28 5 13 10 14 18 6 6 -6 8 -18 4 -28z"/> <path d="M1530 196 c0 -20 5 -36 10 -36 6 0 10 14 10 30 0 17 5 30 10 30 6 0 10 -13 10 -30 0 -16 5 -30 11 -30 6 0 9 14 7 33 -2 27 -8 33 -30 35 -26 3 -28 1 -28 -32z"/> <path d="M1635 220 c-8 -14 3 -30 21 -30 8 0 14 -5 14 -11 0 -6 -9 -8 -22 -4 -18 6 -20 4 -12 -5 14 -15 46 -10 52 8 2 7 -5 16 -17 19 -12 3 -21 10 -21 15 0 6 7 8 15 4 8 -3 15 -1 15 4 0 13 -37 13 -45 0z"/> <path d="M1690 226 c0 -14 24 -66 30 -66 4 0 13 14 19 31 13 39 13 39 2 39 -5 0 -12 -10 -14 -22 l-4 -23 -8 23 c-6 18 -25 32 -25 18z"/> <path d="M1764 216 c-9 -25 1 -51 19 -50 9 1 17 -3 17 -8 0 -6 -9 -8 -20 -5 -24 6 -27 -8 -4 -17 26 -10 44 13 44 55 0 35 -3 39 -25 39 -14 0 -28 -6 -31 -14z"/> </g> </svg> 